#!OML:ASF H:\Pregnant\Project 1\Capture day 1\Session 1\femalepreg.ASF
:FULLY-SPECIFIED
:DEGREES
1081
root 20.7883 15.4328 17.6183 -162.166 190.274 -183.108
lowerback -14.1467 1.97243 9.19845
upperback -4.64344 1.26027 1.21639
thorax 3.15351 0.599118 -3.69349
lowerneck -14.5533 -8.26559 -4.64177
upperneck 25.3803 -11.891 4.50629
head 11.1843 -5.34452 0.708554
rclavicle -3.21783e-015 -1.90833e-014
rhumerus -29.9562 0.988873 -80.7668
rradius 28.4257
rwrist -2.77167
rhand -15.1496 -12.6662
rfingers 7.12502
rthumb 11.0204 -42.3569
lclavicle -3.21783e-015 -1.90833e-014
lhumerus -42.7165 -5.89852 85.8827
lradius 24.6749
lwrist 39.0869
lhand -13.1067 -2.72474
lfingers 7.12502
lthumb 12.9904 26.8508
rfemur -36.2192 11.6956 28.2149
rtibia 33.4198
rfoot -10.9545 -3.91225
rtoes 0.38465
lfemur -37.3569 -3.1675 -17.9327
ltibia 67.5441
lfoot 1.55687 -13.4012
ltoes -25.7045
1082
root 20.7706 15.429 17.7052 -162.211 190.57 -183.165
lowerback -14.0049 2.0503 9.41046
upperback -4.56842 1.345 1.22265
thorax 3.17044 0.643634 -3.79242
lowerneck -14.4913 -8.21077 -4.60524
upperneck 25.4272 -11.8106 4.44526
head 11.1785 -5.31277 0.695634
rclavicle -4.48508e-015 4.85035e-014
rhumerus -29.715 0.898773 -80.7407
rradius 28.4928
rwrist -2.87844
rhand -15.6625 -12.5971
rfingers 7.12502
rthumb 10.5258 -42.3136
lclavicle -4.48508e-015 4.85035e-014
lhumerus -42.6717 -6.05158 86.0252
lradius 24.75
lwrist 38.5054
lhand -13.048 -2.80709
lfingers 7.12502
lthumb 13.0469 26.7649
rfemur -35.8055 11.6782 28.3867
rtibia 33.4739
rfoot -11.2871 -3.65243
rtoes 0.524645
lfemur -38.3239 -3.13037 -17.8286
ltibia 67.8425
lfoot 0.401885 -12.7907
ltoes -25.7616
1083
root 20.7522 15.424 17.7923 -162.258 190.852 -183.221
lowerback -13.8829 2.11872 9.62019
upperback -4.48602 1.41551 1.22404
thorax 3.20453 0.682209 -3.89733
lowerneck -14.4352 -8.15378 -4.56796
upperneck 25.4893 -11.7302 4.3904
head 11.1801 -5.27974 0.684235
rclavicle -2.74571e-015 -2.54444e-014
rhumerus -29.4551 0.752607 -80.7173
rradius 28.5291
rwrist -2.97273
rhand -16.136 -12.5276
rfingers 7.12502
rthumb 10.0689 -42.2667
lclavicle -2.74571e-015 -2.54444e-014
lhumerus -42.6176 -6.16805 86.1231
lradius 24.8614
lwrist 38.0053
lhand -13.0281 -2.84282
lfingers 7.12502
lthumb 13.0661 26.7279
rfemur -35.3988 11.668 28.5541
rtibia 33.5464
rfoot -11.6191 -3.41128
rtoes 0.70479
lfemur -39.2588 -3.11783 -17.7216
ltibia 68.0199
lfoot -0.723551 -12.1
ltoes -25.9525
1084
root 20.7331 15.4181 17.8792 -162.307 191.122 -183.28
lowerback -13.7824 2.17732 9.83018
upperback -4.38886 1.46988 1.22564
thorax 3.26422 0.714599 -4.00435
lowerneck -14.4001 -8.0955 -4.53503
upperneck 25.5609 -11.6485 4.34153
head 11.1902 -5.24502 0.674717
rclavicle -1.34925e-014 1.03368e-014
rhumerus -29.1592 0.560625 -80.6951
rradius 28.5362
rwrist -3.05598
rhand -16.5529 -12.4886
rfingers 7.12502
rthumb 9.66676 -42.2468
lclavicle -1.34925e-014 1.03368e-014
lhumerus -42.5343 -6.2438 86.1776
lradius 25.0039
lwrist 37.6112
lhand -13.0411 -2.83649
lfingers 7.12502
lthumb 13.0536 26.735
rfemur -34.9997 11.6672 28.7221
rtibia 33.6349
rfoot -11.948 -3.18798
rtoes 0.904712
lfemur -40.1692 -3.13642 -17.6025
ltibia 68.0838
lfoot -1.77857 -11.3286
ltoes -26.1469
1085
root 20.7133 15.4114 17.9659 -162.359 191.387 -183.341
lowerback -13.695 2.22705 10.0343
upperback -4.2811 1.5113 1.22765
thorax 3.34079 0.741959 -4.10946
lowerneck -14.3907 -8.02636 -4.51726
upperneck 25.6472 -11.5498 4.30059
head 11.2116 -5.20207 0.671617
rclavicle -2.73329e-014 0
rhumerus -28.8393 0.335453 -80.6758
rradius 28.5193
rwrist -3.14219
rhand -16.9211 -12.4485
rfingers 7.12502
rthumb 9.31144 -42.2229
lclavicle -2.73329e-014 0
lhumerus -42.4311 -6.29392 86.2005
lradius 25.1802
lwrist 37.3534
lhand -13.0599 -2.74771
lfingers 7.12502
lthumb 13.0355 26.825
rfemur -34.6056 11.6772 28.887
rtibia 33.7369
rfoot -12.2714 -2.97879
rtoes 1.08033
lfemur -41.0512 -3.18682 -17.4762
ltibia 68.0352
lfoot -2.74002 -10.484
ltoes -26.2727
1086
root 20.6931 15.4037 18.0526 -162.417 191.658 -183.397
lowerback -13.5961 2.26811 10.2216
upperback -4.17749 1.54531 1.23267
thorax 3.40563 0.76528 -4.20352
lowerneck -14.3996 -7.9499 -4.51218
upperneck 25.7567 -11.4375 4.25623
head 11.2455 -5.15375 0.670204
rclavicle 1.6027e-014 7.15625e-015
rhumerus -28.5224 0.101775 -80.6581
rradius 28.4868
rwrist -3.23637
rhand -17.2295 -12.4372
rfingers 7.12502
rthumb 9.01389 -42.2246
lclavicle 1.6027e-014 7.15625e-015
lhumerus -42.3293 -6.31888 86.2019
lradius 25.3849
lwrist 37.2393
lhand -13.1176 -2.67915
lfingers 7.12502
lthumb 12.9798 26.8971
rfemur -34.2135 11.6978 29.0434
rtibia 33.8531
rfoot -12.5923 -2.77907
rtoes 1.21869
lfemur -41.885 -3.26555 -17.354
ltibia 67.8723
lfoot -3.6066 -9.56542
ltoes -26.3481
1087
root 20.6726 15.3954 18.1388 -162.476 191.941 -183.446
lowerback -13.4855 2.30142 10.3922
upperback -4.07978 1.57337 1.23983
thorax 3.45674 0.785049 -4.28728
lowerneck -14.4272 -7.86818 -4.50637
upperneck 25.8841 -11.3141 4.1962
head 11.2882 -5.10151 0.663741
rclavicle 3.8763e-015 -5.32743e-014
rhumerus -28.2079 -0.131398 -80.6455
rradius 28.4423
rwrist -3.3401
rhand -17.4752 -12.4552
rfingers 7.12502
rthumb 8.77681 -42.2527
lclavicle 3.8763e-015 -5.32743e-014
lhumerus -42.2242 -6.32612 86.1859
lradius 25.6144
lwrist 37.2686
lhand -13.1829 -2.51184
lfingers 7.12502
lthumb 12.9169 27.0684
rfemur -33.8312 11.7333 29.1869
rtibia 33.9824
rfoot -12.9099 -2.58819
rtoes 1.29018
lfemur -42.6829 -3.37321 -17.2359
ltibia 67.597
lfoot -4.37035 -8.58191
ltoes -26.3472
1088
root 20.6519 15.3867 18.2246 -162.533 192.242 -183.486
lowerback -13.3676 2.33455 10.5539
upperback -3.98611 1.60445 1.23409
thorax 3.50041 0.806008 -4.37947
lowerneck -14.463 -7.78557 -4.48243
upperneck 26.0142 -11.1911 4.12619
head 11.3319 -5.04882 0.650406
rclavicle -9.83984e-015 -1.59028e-014
rhumerus -27.8988 -0.362998 -80.6578
rradius 28.3907
rwrist -3.46925
rhand -17.664 -12.4944
rfingers 7.12502
rthumb 8.59458 -42.2995
lclavicle -9.83984e-015 -1.59028e-014
lhumerus -42.1155 -6.34379 86.1456
lradius 25.8699
lwrist 37.4438
lhand -13.3204 -2.45461
lfingers 7.12502
lthumb 12.7843 27.134
rfemur -33.4608 11.794 29.3092
rtibia 34.1241
rfoot -13.2226 -2.41021
rtoes 1.32089
lfemur -43.4461 -3.51011 -17.1236
ltibia 67.2116
lfoot -5.0285 -7.54897
ltoes -26.2208
1089
root 20.6311 15.3778 18.3104 -162.586 192.566 -183.519
lowerback -13.236 2.36457 10.7023
upperback -3.90576 1.63629 1.22563
thorax 3.52246 0.825975 -4.46751
lowerneck -14.4923 -7.69852 -4.45006
upperneck 26.1473 -11.0609 4.04422
head 11.374 -4.99386 0.632756
rclavicle -1.31695e-015 -5.32743e-014
rhumerus -27.6121 -0.561015 -80.6888
rradius 28.3405
rwrist -3.63066
rhand -17.8 -12.563
rfingers 7.12502
rthumb 8.46332 -42.3734
lclavicle -1.31695e-015 -5.32743e-014
lhumerus -42.0205 -6.37578 86.1047
lradius 26.1401
lwrist 37.7651
lhand -13.5269 -2.48975
lfingers 7.12502
lthumb 12.5853 27.1112
rfemur -33.1 11.8797 29.4139
rtibia 34.2733
rfoot -13.5332 -2.23948
rtoes 1.3384
lfemur -44.1725 -3.67144 -17.0137
ltibia 66.7191
lfoot -5.60515 -6.4866
ltoes -26.0159
1090
root 20.6103 15.3686 18.3957 -162.628 192.912 -183.549
lowerback -13.0995 2.39683 10.8447
upperback -3.83775 1.67405 1.20889
thorax 3.52982 0.847796 -4.56034
lowerneck -14.5145 -7.61012 -4.40857
upperneck 26.2781 -10.9294 3.95614
head 11.413 -4.93858 0.611953
rclavicle 3.3048e-015 -3.97569e-015
rhumerus -27.3458 -0.730635 -80.7439
rradius 28.2929
rwrist -3.83055
rhand -17.8903 -12.6619
rfingers 7.12502
rthumb 8.37624 -42.4758
lclavicle 3.3048e-015 -3.97569e-015
lhumerus -41.9326 -6.4217 86.0531
lradius 26.425
lwrist 38.1916
lhand -13.7915 -2.56557
lfingers 7.12502
lthumb 12.3301 27.0509
rfemur -32.7558 11.9958 29.5017
rtibia 34.424
rfoot -13.8357 -2.08026
rtoes 1.34564
lfemur -44.8745 -3.85548 -16.8995
ltibia 66.125
lfoot -6.11424 -5.4253
ltoes -25.7284
1091
root 20.5896 15.3591 18.4814 -162.66 193.284 -183.581
lowerback -12.9607 2.4325 10.9826
upperback -3.78137 1.71837 1.19021
thorax 3.52468 0.871857 -4.65189
lowerneck -14.5221 -7.51862 -4.3669
upperneck 26.4019 -10.7926 3.86549
head 11.4463 -4.8819 0.591632
rclavicle 7.90169e-015 -2.46493e-014
rhumerus -27.1052 -0.849289 -80.8205
rradius 28.2556
rwrist -4.07205
rhand -17.9498 -12.7746
rfingers 7.12502
rthumb 8.31873 -42.5908
lclavicle 7.90169e-015 -2.46493e-014
lhumerus -41.861 -6.47932 86.0025
lradius 26.7224
lwrist 38.6954
lhand -14.0731 -2.63445
lfingers 7.12502
lthumb 12.0586 26.9981
rfemur -32.42 12.1407 29.5791
rtibia 34.5702
rfoot -14.128 -1.92457
rtoes 1.34671
lfemur -45.5421 -4.05675 -16.7748
ltibia 65.4311
lfoot -6.56937 -4.38755
ltoes -25.3693
1092
root 20.5689 15.3498 18.5674 -162.674 193.679 -183.62
lowerback -12.8375 2.47219 11.1183
upperback -3.72942 1.76662 1.17378
thorax 3.52407 0.897912 -4.73895
lowerneck -14.5233 -7.4289 -4.32736
upperneck 26.5148 -10.6565 3.7728
head 11.4743 -4.82645 0.57116
rclavicle -4.36581e-014 -3.49861e-014
rhumerus -26.8751 -0.913171 -80.9138
rradius 28.2263
rwrist -4.34124
rhand -17.9749 -12.9051
rfingers 7.12502
rthumb 8.29456 -42.7223
lclavicle -4.36581e-014 -3.49861e-014
lhumerus -41.7887 -6.53983 85.9523
lradius 27.0244
lwrist 39.2335
lhand -14.393 -2.79878
lfingers 7.12502
lthumb 11.7501 26.8516
rfemur -32.0957 12.3141 29.6509
rtibia 34.7073
rfoot -14.4063 -1.77582
rtoes 1.34097
lfemur -46.1813 -4.27488 -16.6306
ltibia 64.6405
lfoot -6.96863 -3.40207
ltoes -24.9521
1093
root 20.5482 15.3406 18.6539 -162.668 194.094 -183.666
lowerback -12.7457 2.51797 11.2554
upperback -3.67014 1.81812 1.1563
thorax 3.54928 0.927168 -4.8266
lowerneck -14.5384 -7.33978 -4.28974
upperneck 26.6161 -10.5204 3.68478
head 11.5015 -4.77059 0.55219
rclavicle 1.89839e-014 3.73715e-014
rhumerus -26.6321 -0.941216 -81.0257
rradius 28.1983
rwrist -4.61486
rhand -17.9656 -13.0282
rfingers 7.12502
rthumb 8.30353 -42.845
lclavicle 1.89839e-014 3.73715e-014
lhumerus -41.6941 -6.62336 85.9058
lradius 27.3259
lwrist 39.7894
lhand -14.7141 -3.00075
lfingers 7.12502
lthumb 11.4405 26.6671
rfemur -31.7841 12.5111 29.7193
rtibia 34.8325
rfoot -14.6595 -1.63232
rtoes 1.28588
lfemur -46.793 -4.50839 -16.4633
ltibia 63.7539
lfoot -7.30315 -2.4869
ltoes -24.5147
